<?xml version="1.0" standalone="no"?>
<!DOCTYPE svg PUBLIC "-//W3C//DTD SVG 20010904//EN"
 "http://www.w3.org/TR/2001/REC-SVG-20010904/DTD/svg10.dtd">
<svg version="1.0" xmlns="http://www.w3.org/2000/svg"
 width="186.000000pt" height="186.000000pt" viewBox="0 0 186.000000 186.000000"
 preserveAspectRatio="xMidYMid meet">
<metadata>
Created by potrace 1.14, written by Peter Selinger 2001-2017
</metadata>
<g transform="translate(0.000000,186.000000) scale(0.100000,-0.100000)"
fill="#000000" stroke="none">
<path d="M743 1810 c-18 -4 -50 -23 -72 -41 -21 -19 -72 -54 -113 -79 -69 -42
-77 -45 -138 -43 -37 2 -95 13 -135 27 -50 17 -74 21 -82 14 -18 -15 -16 -66
6 -130 l19 -55 -34 -16 c-61 -29 -49 -46 81 -122 55 -32 108 -65 119 -74 53
-46 63 -140 23 -212 -14 -24 -49 -63 -78 -87 -145 -117 -220 -214 -249 -322
-18 -67 -19 -166 -3 -229 72 -277 356 -417 823 -406 189 5 211 7 336 41 309
82 514 279 589 564 23 86 27 239 8 310 -31 121 -116 181 -188 134 -27 -18 -79
-87 -110 -148 -31 -60 -56 -74 -129 -74 -34 0 -94 6 -132 13 -65 13 -149 23
-236 30 -36 3 -68 15 -39 15 21 0 114 65 159 110 123 126 155 301 83 455 -85
183 -358 357 -508 325z m-64 -191 c13 -24 13 -30 -6 -65 -23 -46 -75 -84 -113
-84 -28 0 -42 11 -53 42 -9 24 45 101 84 121 44 22 70 18 88 -14z"/>
<path d="M576 1591 c-44 -29 -60 -59 -47 -87 12 -27 22 -29 54 -13 52 27 74
89 39 108 -13 7 -26 5 -46 -8z"/>
</g>
</svg>
